<?xml version="1.0" encoding="UTF-8" standalone="no"?>
<svg width="231px" height="115px" viewBox="0 0 231 115" version="1.1" xmlns="http://www.w3.org/2000/svg" xmlns:xlink="http://www.w3.org/1999/xlink" xmlns:sketch="http://www.bohemiancoding.com/sketch/ns">
    <!-- Generator: Sketch 3.1.1 (8761) - http://www.bohemiancoding.com/sketch -->
    <title>logo 2</title>
    <desc>Created with Sketch.</desc>
    <defs></defs>
    <g id="Page-1" stroke="none" stroke-width="1" fill="none" fill-rule="evenodd" sketch:type="MSPage">
        <g id="Portrait-Retina" sketch:type="MSArtboardGroup" transform="translate(-866.000000, -1107.000000)" fill="#343534">
            <g id="logo-2" sketch:type="MSLayerGroup" transform="translate(866.000000, 1108.000000)">
                <path d="M32.043299,81.8791011 C30.8587629,82.1426966 29.9,83.029618 29.5907216,84.2049438 C28.5020619,88.3449438 27.5061856,92.0693933 26.5969072,95.375191 C25.5515464,99.1864719 24.3948454,102.405438 23.1268041,105.028989 C21.8587629,107.649438 20.3494845,109.649663 18.5989691,111.02036 C16.8484536,112.391056 14.8876289,113.079506 12.7134021,113.079506 C10.542268,113.079506 8.79175258,112.834517 7.46185567,112.350742 C6.13505155,111.866966 4.94742268,111.262247 3.90206186,110.536584 C2.80412371,109.752 1.89484536,108.917798 1.17113402,108.033978 C0.196907216,106.843146 0.178350515,105.159236 1.14020619,103.956 C4.97216495,99.1554607 12.5154639,85.5322247 23.7608247,63.083191 C31.0443299,48.5172135 36.3360825,38.3083146 39.6360825,32.4564944 C41.0030928,29.9942022 42.7752577,28.7630562 44.9494845,28.7630562 L44.9865979,28.7630562 C47.2443299,28.7785618 48.5742268,31.3307865 47.5907216,33.3682247 C43.214433,42.4235056 39.3979381,51.8540225 36.1474227,61.6628764 C35.3123711,64.1809888 37.7587629,66.5471461 40.2701031,65.7067416 C45.942268,63.8119551 51.3453608,60.6364045 56.4793814,56.183191 C58.6103093,54.325618 60.342268,52.3905169 61.6690722,50.3716854 C63.4814433,50.2507416 64.3845361,50.9981124 64.3845361,52.6106966 C64.3845361,53.2588315 63.8927835,54.7690787 62.9061856,57.1507416 C61.9195876,59.5324045 60.2216495,62.2768989 57.8061856,65.3842247 C55.3907216,68.4884494 52.6938144,71.1926292 49.7185567,73.4936629 C44.3742268,77.6398652 38.485567,80.4339775 32.043299,81.8791011 L32.043299,81.8791011 Z M58.8917526,15.7817528 C57.3237113,16.6500674 55.6226804,17.3230112 53.7917526,17.8098876 C51.9608247,18.2936629 50.3402062,18.5355506 48.9329897,18.5355506 C47.5226804,18.5355506 46.285567,18.3649888 45.2185567,18.020764 C44.1546392,17.6796404 43.1989691,17.1834607 42.3515464,16.538427 C40.6226804,15.1646292 39.756701,13.4807191 39.756701,11.4835955 C39.756701,9.48647191 40.0783505,7.8025618 40.7216495,6.42876404 C41.3649485,5.05806742 42.3113402,3.88894382 43.5608247,2.91829213 C46.1773196,0.821932584 49.8762887,-0.229348315 54.6670103,-0.229348315 C59.2536082,-0.229348315 62.2721649,1.62822472 63.7226804,5.34026966 C64.1649485,6.38844944 64.3845361,7.57307865 64.3845361,8.88175281 C64.3845361,10.1935281 63.8618557,11.4525843 62.8164948,12.6651236 C61.7680412,13.8745618 60.4628866,14.9134382 58.8917526,15.7817528 L58.8917526,15.7817528 Z" id="Fill-5" sketch:type="MSShapeGroup"></path>
                <path d="M112.894845,46.2409888 C109.635052,51.1624719 105.719588,54.8869213 101.154639,57.4081348 C96.5865979,59.9293483 91.7278351,61.1915056 86.5752577,61.1915056 C82.928866,61.1915056 79.8608247,60.7790562 77.3680412,59.9603596 C74.2845361,58.9462921 74.5938144,54.4248539 77.7762887,53.7767191 C80.4948454,53.221618 83.0247423,52.545573 85.3690722,51.7485843 C87.7814433,50.9422921 90.0546392,49.9840449 92.1886598,48.8738427 C94.3226804,47.7636404 96.1938144,46.473573 97.8020619,45.0005393 C99.4134021,43.5275056 100.690722,41.880809 101.637113,40.0666517 C102.580412,38.2493933 103.053608,36.4042247 103.053608,34.5280449 C103.053608,32.6518652 102.713402,31.1478202 102.029897,30.0190112 C100.096907,26.750427 96.5371134,25.1161348 91.3443299,25.1161348 C84.1412371,25.1161348 77.0773196,26.7907416 70.1556701,30.1399551 C66.8958763,31.6719101 63.8773196,33.5108764 61.1030928,35.6475506 C58.3257732,37.7873258 55.9319588,40.1193708 53.9185567,42.6374831 C51.9051546,45.1617978 50.3278351,47.8132584 49.1804124,50.5980674 C48.0329897,53.3828764 47.4608247,56.4374831 47.4608247,59.7680899 C47.4608247,63.0955955 48.1443299,66.0540674 49.5113402,68.6342022 C53.3340206,75.7357753 61.6443299,79.2865618 74.442268,79.2865618 C80.8010309,79.2865618 86.856701,77.8755506 92.6123711,75.050427 C95.2690722,73.7603596 97.7525773,72.216 100.065979,70.4204494 C102.379381,68.6248989 104.473196,66.6773933 106.34433,64.5810337 C108.215464,62.481573 110.228866,59.7308764 112.381443,56.3165393 C114.534021,52.9084045 115.610309,50.2941573 115.610309,48.48 C115.610309,46.8643146 114.704124,46.1200449 112.894845,46.2409888 L112.894845,46.2409888 Z M74.442268,37.1608989 C77.3,33.4488539 80.6587629,31.5912809 84.5247423,31.5912809 C87.5,31.5912809 88.9907216,33.2193708 88.9907216,36.4662472 C88.9907216,39.7131236 87.0360825,42.5475506 83.1360825,44.9695281 C80.5938144,46.5200899 77.714433,47.6799101 74.4917526,48.4520899 C72.1443299,49.0133933 70.0350515,46.7340674 70.7185567,44.4113258 C71.485567,41.8032809 72.7257732,39.3875056 74.442268,37.1608989 L74.442268,37.1608989 Z" id="Fill-6" sketch:type="MSShapeGroup"></path>
                <path d="M109.573196,66.0323596 C109.573196,64.2585169 109.675258,62.1900674 109.876289,59.8270112 C110.07732,57.4670562 110.349485,54.9768539 110.689691,52.3533034 C111.03299,49.7297528 111.435052,47.0565843 111.898969,44.3337978 C112.359794,41.6110112 112.854639,39.0184719 113.37732,36.5561798 C113.9,34.0938876 114.42268,31.8362697 114.945361,29.7771236 C115.471134,27.7179775 115.993814,26.024764 116.516495,24.6912809 C116.838144,23.8043596 117.159794,23.0973034 117.481443,22.5732135 C117.803093,22.0491236 118.17732,21.6366742 118.597938,21.332764 C119.021649,21.0319551 119.54433,20.830382 120.169072,20.7280449 C120.790722,20.628809 121.56701,20.5760899 122.491753,20.5760899 C123.537113,20.5760899 124.353608,20.628809 124.938144,20.7280449 C125.519588,20.830382 125.952577,21.0722697 126.234021,21.4537079 C126.515464,21.8413483 126.68866,22.3933483 126.747423,23.1190112 C126.809278,23.8446742 126.837113,24.8339326 126.837113,26.0836854 L126.837113,31.5013483 C126.837113,33.6194157 126.87732,35.709573 126.957732,37.765618 L127.62268,37.765618 C128.426804,36.1530337 129.33299,34.3450787 130.338144,32.3479551 C131.346392,30.3508315 132.512371,28.4870562 133.839175,26.750427 C135.169072,25.0168989 136.678351,23.5531685 138.36701,22.3623371 C140.058763,21.1746067 142.010309,20.5760899 144.224742,20.5760899 C144.98866,20.5760899 145.730928,20.7094382 146.457732,20.9699326 C147.181443,21.2335281 147.815464,21.6056629 148.359794,22.0894382 C148.901031,22.5732135 149.334021,23.1717303 149.65567,23.8756854 C149.97732,24.5827416 150.138144,25.3797303 150.138144,26.2666517 C150.138144,26.952 150.039175,27.9102472 149.838144,29.1413933 C149.637113,30.3756404 149.414433,31.6626067 149.173196,33.0146966 C148.931959,34.3698876 148.709278,35.6785618 148.508247,36.9500225 C148.307216,38.2214831 148.208247,39.2789663 148.208247,40.125573 C148.208247,41.58 148.347423,42.7894382 148.628866,43.7600899 C148.910309,44.7276404 149.284536,45.5060225 149.745361,46.0890337 C150.209278,46.6751461 150.731959,47.0875955 151.316495,47.3294831 C151.901031,47.5713708 152.513402,47.6923146 153.156701,47.6923146 C154.969072,47.6923146 156.840206,47.2891685 158.770103,46.4828764 C160.703093,45.6765843 162.472165,44.7679551 164.083505,43.7600899 C164.139175,43.7228764 164.197938,43.688764 164.253608,43.6515506 C166.495876,42.2529438 169.372165,43.9089438 169.202062,46.548 L168.834021,52.3160899 C168.769072,53.3332584 168.234021,54.2542921 167.37732,54.8093933 C166.690722,55.2528539 165.954639,55.7273258 165.169072,56.2266067 C163.842268,57.0732135 162.42268,57.8702022 160.913402,58.617573 C159.215464,59.4610787 157.443299,60.1433258 155.593814,60.6767191 C154.545361,60.9806292 153.453608,61.1697978 152.364948,61.2225169 C148.814433,61.3930787 146,60.7883596 143.921649,59.4052584 C142.069072,58.1741124 140.6,56.5615281 139.514433,54.5613034 C138.428866,52.5641798 137.624742,50.3251685 137.098969,47.8442697 C136.576289,45.3633708 136.15567,42.8514607 135.830928,40.3085393 L134.865979,40.3085393 L124.062887,70.510382 C123.496907,72.0857528 122.964948,73.3851236 122.460825,74.4146966 C121.959794,75.4442697 121.446392,76.281573 120.923711,76.9266067 C120.397938,77.5716404 119.835052,78.0275056 119.231959,78.288 C118.628866,78.5515955 117.963918,78.6818427 117.240206,78.6818427 C115.591753,78.6818427 114.261856,78.3283146 113.256701,77.6243596 C112.251546,76.9173034 111.475258,75.9683596 110.934021,74.7775281 C110.389691,73.5866966 110.027835,72.2377079 109.845361,70.7243596 C109.665979,69.2110112 109.573196,67.6449438 109.573196,66.0323596" id="Fill-7" sketch:type="MSShapeGroup"></path>
                <path d="M176.760825,78.9857528 L175.551546,79.0446742 C169.192784,79.0446742 164.343299,77.4724045 161.003093,74.324764 C157.86701,71.3786966 156.295876,67.3844494 156.295876,62.3389213 C156.295876,55.3986067 159.051546,48.7622022 164.565979,42.4266067 C169.480412,36.7949663 175.365979,32.7107865 182.216495,30.1740674 C183.237113,29.7957303 183.883505,28.8933034 184.124742,27.8265169 C184.365979,26.7597303 185.009278,25.8355955 186.054639,25.0541124 C187.183505,24.2075056 189.042268,23.7857528 191.640206,23.7857528 C194.235052,23.7857528 196.740206,24.0276404 199.15567,24.5114157 C201.568041,24.995191 204.005155,26.0650787 206.457732,27.7179775 C211.771134,31.2284494 214.427835,35.9514607 214.427835,41.880809 C214.427835,45.8068315 213.830928,49.608809 212.643299,53.2929438 C211.737113,56.0963596 214.907216,58.5338427 217.390722,56.9584719 C221.18866,54.552 224.668041,50.9795056 227.828866,46.2409888 C229.638144,46.1200449 230.54433,46.8643146 230.54433,48.48 C230.54433,49.1250337 230.343299,49.9127191 229.941237,50.8399551 C224.46701,63.8739775 213.521649,72.5075056 197.102062,76.7467416 C191.225773,78.2786966 184.545361,79.0446742 177.060825,79.0446742 L176.760825,78.9857528 L176.760825,78.9857528 Z M175.734021,52.4742472 C175.734021,57.1538427 177.685567,59.495191 181.58866,59.495191 C184.88866,59.495191 188.207216,57.4980674 191.547423,53.5038202 C195.048454,49.3483146 196.802062,45.1307865 196.802062,40.8543371 C196.802062,36.8848989 195.06701,34.1404045 191.6,32.6146517 C190.919588,32.3138427 190.121649,32.3014382 189.419588,32.5340225 C182.847423,34.6924045 178.607216,39.0991011 176.698969,45.7572135 C176.05567,47.8938876 175.734021,50.1328989 175.734021,52.4742472 L175.734021,52.4742472 Z" id="Fill-8" sketch:type="MSShapeGroup"></path>
                <path d="M158.086598,99.3942472 C158.086598,99.3942472 149.083505,102.690742 145.365979,104.01182 C141.648454,105.332899 138.354639,106.222921 135.484536,106.681888 C132.61134,107.137753 130.115464,107.041618 127.990722,106.387281 C125.869072,105.732944 124.183505,104.511101 122.940206,102.724854 C121.696907,100.935506 120.895876,99.3570337 120.530928,97.9894382 C120.165979,96.6187416 119.983505,95.2976629 119.980412,94.02 C119.992784,92.6710112 120.153608,91.4460674 120.462887,90.3451685 C120.880412,88.8628315 122.247423,87.8828764 123.781443,87.9852135 C129.902062,88.3914607 145.359794,86.8005843 170.154639,83.206382 C186.237113,80.8619326 197.618557,79.3733933 204.289691,78.740764 C207.085567,78.4554607 209.108247,79.2090337 210.348454,80.998382 C210.360825,81.0138876 210.373196,81.0293933 210.382474,81.0448989 C211.635052,82.8838652 210.379381,85.439191 208.192784,85.8299326 C195.070103,88.1805843 174.493814,93.8494382 172.959794,94.271191 C172.894845,94.2897978 172.836082,94.3084045 172.774227,94.3301124 L158.086598,99.3942472" id="Fill-9" sketch:type="MSShapeGroup"></path>
            </g>
        </g>
    </g>
</svg>